<?xml version="1.0" ?><!DOCTYPE svg  PUBLIC '-//W3C//DTD SVG 1.1//EN'  'http://www.w3.org/Graphics/SVG/1.1/DTD/svg11.dtd'><svg enable-background="new 0 0 24 24" height="24px" id="Layer_1" version="1.1" viewBox="0 0 24 24" width="24px" xml:space="preserve" xmlns="http://www.w3.org/2000/svg" xmlns:xlink="http://www.w3.org/1999/xlink"><g><path d="M12,0C5.4,0,0,5.4,0,12s5.4,12,12,12s12-5.4,12-12S18.6,0,12,0z M12,22C6.5,22,2,17.5,2,12S6.5,2,12,2s10,4.5,10,10   S17.5,22,12,22z"/><path d="M12,7c1.1,0,2,0.9,2,2h2c0-1.9-1.3-3.4-3-3.9V4h-2v1.1C9.3,5.6,8,7.1,8,9c0,2.2,1.8,4,4,4c1.1,0,2,0.9,2,2s-0.9,2-2,2   s-2-0.9-2-2H8c0,1.9,1.3,3.4,3,3.9V20h2v-1.1c1.7-0.4,3-2,3-3.9c0-2.2-1.8-4-4-4c-1.1,0-2-0.9-2-2S10.9,7,12,7z"/></g></svg>