<?xml version="1.0" ?><!DOCTYPE svg  PUBLIC '-//W3C//DTD SVG 1.1//EN'  'http://www.w3.org/Graphics/SVG/1.1/DTD/svg11.dtd'><svg height="512px" style="enable-background:new 0 0 512 512;" version="1.1" viewBox="0 0 512 512" width="512px" xml:space="preserve" xmlns="http://www.w3.org/2000/svg" xmlns:xlink="http://www.w3.org/1999/xlink"><g id="_x32_82-Ripple"><g><g><g><path d="M465.894,122.331c0,44.909-33.073,88.358-81.454,94.164c-8.498,1.038-17.392,1.038-25.927,2.851      c-27.739,5.733-39.866,39.85-21.373,61.435c7.48,8.937,18.145,12.136,29.559,13.276c11.729,1.418,24.172,1.775,35.188,5.762      c35.946,12.201,56.518,38.357,62.579,76.145c8.211,51.013-25.95,96.931-73.234,107.755      c-51.603,11.79-104.925-23.396-114.143-75.774c-4.282-23.021,0.354-44.223,10.674-64.371c4.219-8.599,7.817-16.855,7.454-26.922      c-0.737-15.801-10.702-28.741-26.336-34.131c-13.516-4.637-28.777-0.367-38.403,11.537c-6.032,7.546-11.015,16.153-17.05,23.7      c-24.569,29.825-56.557,40.233-93.551,31.979c-37.341-9.004-61.491-33.439-70.768-70.793      c-13.515-53.167,19.943-107,73.281-117.088c39.108-7.533,71.11,5.386,95.295,37.69c4.979,6.856,9.614,14.765,15.644,20.521      c19.536,19.738,54.775,10.066,61.498-16.878c2.489-10.432,0.383-20.498-4.582-30.226c-8.924-17.219-15.306-35.542-14.613-55.25      c1.449-45.675,37.334-84.771,82.123-90.928c50.5-6.4,97.094,26.99,106.711,77.984      C465.183,110.51,465.545,116.584,465.894,122.331L465.894,122.331z" style="fill:#019DD6;"/></g></g></g></g><g id="Layer_1"/></svg>